<svg xmlns="http://www.w3.org/2000/svg" xmlns:xlink="http://www.w3.org/1999/xlink" width="500" zoomAndPan="magnify" viewBox="0 0 375 374.999991" height="500" preserveAspectRatio="xMidYMid meet" version="1.0"><defs><clipPath id="2c8696b525"><path d="M 52.242188 74.425781 L 322.757812 74.425781 L 322.757812 255.628906 L 52.242188 255.628906 Z M 52.242188 74.425781 " clip-rule="nonzero"/></clipPath><clipPath id="3082ce99a4"><path d="M 0.242188 0.425781 L 270.757812 0.425781 L 270.757812 181.628906 L 0.242188 181.628906 Z M 0.242188 0.425781 " clip-rule="nonzero"/></clipPath><clipPath id="6f9db31d94"><rect x="0" width="271" y="0" height="182"/></clipPath><clipPath id="7df801cfc5"><path d="M 40.976562 272.125 L 337.5 272.125 L 337.5 292.035156 L 40.976562 292.035156 Z M 40.976562 272.125 " clip-rule="nonzero"/></clipPath><clipPath id="4c3546b973"><path d="M 0.976562 0.125 L 297.5 0.125 L 297.5 20.035156 L 0.976562 20.035156 Z M 0.976562 0.125 " clip-rule="nonzero"/></clipPath><clipPath id="a77388d351"><rect x="0" width="298" y="0" height="21"/></clipPath><clipPath id="457edeb7b4"><path d="M 68.285156 284.230469 L 310.796875 284.230469 L 310.796875 320.9375 L 68.285156 320.9375 Z M 68.285156 284.230469 " clip-rule="nonzero"/></clipPath><clipPath id="be49833341"><path d="M 0.285156 0.230469 L 242.796875 0.230469 L 242.796875 36.9375 L 0.285156 36.9375 Z M 0.285156 0.230469 " clip-rule="nonzero"/></clipPath><clipPath id="028497a445"><rect x="0" width="243" y="0" height="37"/></clipPath><clipPath id="747249b93e"><path d="M 40 282 L 81 282 L 81 321 L 40 321 Z M 40 282 " clip-rule="nonzero"/></clipPath><clipPath id="19e0a29375"><path d="M 34.617188 310.648438 L 46.386719 272.058594 L 80.101562 282.34375 L 68.332031 320.929688 Z M 34.617188 310.648438 " clip-rule="nonzero"/></clipPath><clipPath id="4e1eac4b99"><path d="M 40.492188 291.382812 L 80.085938 282.398438 L 68.332031 320.929688 Z M 40.492188 291.382812 " clip-rule="nonzero"/></clipPath><clipPath id="6c609e602c"><path d="M 0.320312 0.238281 L 40.160156 0.238281 L 40.160156 39 L 0.320312 39 Z M 0.320312 0.238281 " clip-rule="nonzero"/></clipPath><clipPath id="e218f736c2"><path d="M -5.382812 28.648438 L 6.386719 -9.941406 L 40.101562 0.34375 L 28.332031 38.929688 Z M -5.382812 28.648438 " clip-rule="nonzero"/></clipPath><clipPath id="cddfdd3474"><path d="M 0.492188 9.382812 L 40.085938 0.398438 L 28.332031 38.929688 Z M 0.492188 9.382812 " clip-rule="nonzero"/></clipPath><clipPath id="f7d3e67c61"><rect x="0" width="41" y="0" height="39"/></clipPath><clipPath id="68fe8e6cc7"><path d="M 299 281 L 339 281 L 339 321 L 299 321 Z M 299 281 " clip-rule="nonzero"/></clipPath><clipPath id="31342fc496"><path d="M 284.84375 296.007812 L 313.371094 267.484375 L 338.292969 292.40625 L 309.765625 320.933594 Z M 284.84375 296.007812 " clip-rule="nonzero"/></clipPath><clipPath id="cd8927cc71"><path d="M 299.085938 281.765625 L 338.253906 292.449219 L 309.765625 320.933594 Z M 299.085938 281.765625 " clip-rule="nonzero"/></clipPath><clipPath id="2e1f04c490"><path d="M 0.0390625 0.761719 L 39.398438 0.761719 L 39.398438 40 L 0.0390625 40 Z M 0.0390625 0.761719 " clip-rule="nonzero"/></clipPath><clipPath id="6fbe753f01"><path d="M -14.15625 15.007812 L 14.371094 -13.515625 L 39.292969 11.40625 L 10.765625 39.933594 Z M -14.15625 15.007812 " clip-rule="nonzero"/></clipPath><clipPath id="130c8c7fd8"><path d="M 0.0859375 0.765625 L 39.253906 11.449219 L 10.765625 39.933594 Z M 0.0859375 0.765625 " clip-rule="nonzero"/></clipPath><clipPath id="7250c8cef3"><rect x="0" width="40" y="0" height="40"/></clipPath><clipPath id="3ffece6948"><path d="M 158 290.398438 L 170.1875 290.398438 L 170.1875 302.582031 L 158 302.582031 Z M 158 290.398438 " clip-rule="nonzero"/></clipPath><clipPath id="62b99dd09b"><path d="M 0 0.398438 L 12.1875 0.398438 L 12.1875 12.582031 L 0 12.582031 Z M 0 0.398438 " clip-rule="nonzero"/></clipPath><clipPath id="6801664ffb"><rect x="0" width="13" y="0" height="13"/></clipPath><clipPath id="35da351bb3"><path d="M 183.144531 290.398438 L 195.332031 290.398438 L 195.332031 302.582031 L 183.144531 302.582031 Z M 183.144531 290.398438 " clip-rule="nonzero"/></clipPath><clipPath id="69e8021a0a"><path d="M 0.144531 0.398438 L 12.332031 0.398438 L 12.332031 12.582031 L 0.144531 12.582031 Z M 0.144531 0.398438 " clip-rule="nonzero"/></clipPath><clipPath id="ac0d5c5bb3"><rect x="0" width="13" y="0" height="13"/></clipPath><clipPath id="199baa3167"><path d="M 208.082031 290.4375 L 220.269531 290.4375 L 220.269531 302.625 L 208.082031 302.625 Z M 208.082031 290.4375 " clip-rule="nonzero"/></clipPath><clipPath id="3961546f9b"><path d="M 0.0820312 0.4375 L 12.269531 0.4375 L 12.269531 12.625 L 0.0820312 12.625 Z M 0.0820312 0.4375 " clip-rule="nonzero"/></clipPath><clipPath id="cba6c418a8"><rect x="0" width="13" y="0" height="13"/></clipPath><clipPath id="c37f945efe"><path d="M 114.585938 97.3125 L 255.847656 97.3125 L 255.847656 128.597656 L 114.585938 128.597656 Z M 114.585938 97.3125 " clip-rule="nonzero"/></clipPath><clipPath id="aa176f9b90"><path d="M 185.25 128.597656 L 114.648438 97.3125 L 255.847656 97.3125 Z M 185.25 128.597656 " clip-rule="nonzero"/></clipPath><clipPath id="3dd806513a"><path d="M 0.585938 0.3125 L 141.847656 0.3125 L 141.847656 31.597656 L 0.585938 31.597656 Z M 0.585938 0.3125 " clip-rule="nonzero"/></clipPath><clipPath id="0505f59c40"><path d="M 71.25 31.597656 L 0.648438 0.3125 L 141.847656 0.3125 Z M 71.25 31.597656 " clip-rule="nonzero"/></clipPath><clipPath id="793e4a0cbe"><rect x="0" width="142" y="0" height="32"/></clipPath><clipPath id="c338b4025d"><path d="M 85.039062 53.363281 L 161.140625 53.363281 L 161.140625 116.824219 L 85.039062 116.824219 Z M 85.039062 53.363281 " clip-rule="nonzero"/></clipPath><clipPath id="41bde35255"><path d="M 85.039062 85.09375 L 161.03125 53.363281 L 161.03125 116.824219 Z M 85.039062 85.09375 " clip-rule="nonzero"/></clipPath><clipPath id="a6a300a5df"><path d="M 0.0390625 0.363281 L 76.039062 0.363281 L 76.039062 63.824219 L 0.0390625 63.824219 Z M 0.0390625 0.363281 " clip-rule="nonzero"/></clipPath><clipPath id="fc924e6f7a"><path d="M 0.0390625 32.09375 L 76.03125 0.363281 L 76.03125 63.824219 Z M 0.0390625 32.09375 " clip-rule="nonzero"/></clipPath><clipPath id="ee44284024"><rect x="0" width="77" y="0" height="64"/></clipPath><clipPath id="ede6115bc8"><path d="M 208 55 L 285 55 L 285 119 L 208 119 Z M 208 55 " clip-rule="nonzero"/></clipPath><clipPath id="85e24ac3e4"><path d="M 284.046875 53.367188 L 285.582031 116.804688 L 209.507812 118.648438 L 207.96875 55.207031 Z M 284.046875 53.367188 " clip-rule="nonzero"/></clipPath><clipPath id="f53d89840b"><path d="M 284.816406 85.085938 L 209.617188 118.644531 L 208.078125 55.207031 Z M 284.816406 85.085938 " clip-rule="nonzero"/></clipPath><clipPath id="f30d412781"><path d="M 0 0.199219 L 76.878906 0.199219 L 76.878906 63.800781 L 0 63.800781 Z M 0 0.199219 " clip-rule="nonzero"/></clipPath><clipPath id="d48a5e70a1"><path d="M 76.046875 -1.632812 L 77.582031 61.804688 L 1.507812 63.648438 L -0.03125 0.207031 Z M 76.046875 -1.632812 " clip-rule="nonzero"/></clipPath><clipPath id="fd0313ab62"><path d="M 76.816406 30.085938 L 1.617188 63.644531 L 0.078125 0.207031 Z M 76.816406 30.085938 " clip-rule="nonzero"/></clipPath><clipPath id="7dc42645c0"><rect x="0" width="77" y="0" height="64"/></clipPath><clipPath id="e20cfd9bc5"><path d="M 146.539062 72.316406 L 219.75 72.316406 L 219.75 112.644531 L 146.539062 112.644531 Z M 146.539062 72.316406 " clip-rule="nonzero"/></clipPath><clipPath id="07df843f1c"><path d="M 0.539062 0.316406 L 73.75 0.316406 L 73.75 40.644531 L 0.539062 40.644531 Z M 0.539062 0.316406 " clip-rule="nonzero"/></clipPath><clipPath id="c9404bacb5"><rect x="0" width="74" y="0" height="41"/></clipPath><clipPath id="c06943e0e9"><path d="M 113.960938 42.394531 L 255.226562 42.394531 L 255.226562 73.675781 L 113.960938 73.675781 Z M 113.960938 42.394531 " clip-rule="nonzero"/></clipPath><clipPath id="aacad7bd08"><path d="M 184.5625 42.394531 L 255.164062 73.675781 L 113.960938 73.675781 Z M 184.5625 42.394531 " clip-rule="nonzero"/></clipPath><clipPath id="a8dbe5cb26"><path d="M 0.960938 0.394531 L 142.226562 0.394531 L 142.226562 31.675781 L 0.960938 31.675781 Z M 0.960938 0.394531 " clip-rule="nonzero"/></clipPath><clipPath id="7a2fd6f8da"><path d="M 71.5625 0.394531 L 142.164062 31.675781 L 0.960938 31.675781 Z M 71.5625 0.394531 " clip-rule="nonzero"/></clipPath><clipPath id="d15a03d79b"><rect x="0" width="143" y="0" height="32"/></clipPath><clipPath id="62607455c4"><path d="M 117 111 L 162 111 L 162 160 L 117 160 Z M 117 111 " clip-rule="nonzero"/></clipPath><clipPath id="cc135438e5"><path d="M 98.707031 125.703125 L 136.960938 98.035156 L 161.136719 131.457031 L 122.882812 159.125 Z M 98.707031 125.703125 " clip-rule="nonzero"/></clipPath><clipPath id="955f7d59d2"><path d="M 117.808594 111.886719 L 161.082031 131.5 L 122.882812 159.125 Z M 117.808594 111.886719 " clip-rule="nonzero"/></clipPath><clipPath id="6153b42a02"><path d="M 0.601562 0.839844 L 44.28125 0.839844 L 44.28125 48.359375 L 0.601562 48.359375 Z M 0.601562 0.839844 " clip-rule="nonzero"/></clipPath><clipPath id="6faba0e58a"><path d="M -18.292969 14.703125 L 19.960938 -12.964844 L 44.136719 20.457031 L 5.882812 48.125 Z M -18.292969 14.703125 " clip-rule="nonzero"/></clipPath><clipPath id="9b2082516f"><path d="M 0.808594 0.886719 L 44.082031 20.5 L 5.882812 48.125 Z M 0.808594 0.886719 " clip-rule="nonzero"/></clipPath><clipPath id="66e2c7c39c"><rect x="0" width="45" y="0" height="49"/></clipPath><clipPath id="a8e3afc44a"><path d="M 210 112 L 255 112 L 255 160 L 210 160 Z M 210 112 " clip-rule="nonzero"/></clipPath><clipPath id="6c498c79b5"><path d="M 235.609375 97.730469 L 273.125 126.398438 L 248.078125 159.175781 L 210.5625 130.507812 Z M 235.609375 97.730469 " clip-rule="nonzero"/></clipPath><clipPath id="896c0bb412"><path d="M 254.339844 112.042969 L 248.023438 159.132812 L 210.5625 130.507812 Z M 254.339844 112.042969 " clip-rule="nonzero"/></clipPath><clipPath id="220dc73071"><path d="M 0.480469 0 L 44.398438 0 L 44.398438 47.359375 L 0.480469 47.359375 Z M 0.480469 0 " clip-rule="nonzero"/></clipPath><clipPath id="dd8a877b1b"><path d="M 25.609375 -14.269531 L 63.125 14.398438 L 38.078125 47.175781 L 0.5625 18.507812 Z M 25.609375 -14.269531 " clip-rule="nonzero"/></clipPath><clipPath id="86cca9ca6b"><path d="M 44.339844 0.0429688 L 38.023438 47.132812 L 0.5625 18.507812 Z M 44.339844 0.0429688 " clip-rule="nonzero"/></clipPath><clipPath id="9b520a904f"><rect x="0" width="45" y="0" height="48"/></clipPath><clipPath id="cc225ab109"><path d="M 117.554688 113.402344 L 121.304688 113.402344 L 121.304688 159.726562 L 117.554688 159.726562 Z M 117.554688 113.402344 " clip-rule="nonzero"/></clipPath><clipPath id="893bfc78f9"><path d="M 0.554688 0.402344 L 4.304688 0.402344 L 4.304688 46.726562 L 0.554688 46.726562 Z M 0.554688 0.402344 " clip-rule="nonzero"/></clipPath><clipPath id="465f166fc1"><rect x="0" width="5" y="0" height="47"/></clipPath><clipPath id="8ee43d74d8"><path d="M 249.800781 114 L 253.550781 114 L 253.550781 159.128906 L 249.800781 159.128906 Z M 249.800781 114 " clip-rule="nonzero"/></clipPath><clipPath id="fca7e23339"><path d="M 0.800781 0 L 4.550781 0 L 4.550781 45.128906 L 0.800781 45.128906 Z M 0.800781 0 " clip-rule="nonzero"/></clipPath><clipPath id="11bf380e4a"><rect x="0" width="5" y="0" height="46"/></clipPath><clipPath id="b811c2bf91"><path d="M 210.566406 131.351562 L 251.675781 131.351562 L 251.675781 160.222656 L 210.566406 160.222656 Z M 210.566406 131.351562 " clip-rule="nonzero"/></clipPath><clipPath id="9ed7f50267"><path d="M 0.566406 0.351562 L 41.675781 0.351562 L 41.675781 29.222656 L 0.566406 29.222656 Z M 0.566406 0.351562 " clip-rule="nonzero"/></clipPath><clipPath id="873d543eac"><rect x="0" width="42" y="0" height="30"/></clipPath><clipPath id="10ef03931c"><path d="M 119.972656 130.257812 L 158 130.257812 L 158 159.128906 L 119.972656 159.128906 Z M 119.972656 130.257812 " clip-rule="nonzero"/></clipPath><clipPath id="f10cd759af"><path d="M 0.972656 0.257812 L 39 0.257812 L 39 29.128906 L 0.972656 29.128906 Z M 0.972656 0.257812 " clip-rule="nonzero"/></clipPath><clipPath id="9440b2faf0"><rect x="0" width="39" y="0" height="30"/></clipPath><clipPath id="c57363b88a"><path d="M 137 125 L 187 125 L 187 169 L 137 169 Z M 137 125 " clip-rule="nonzero"/></clipPath><clipPath id="e8599c6e75"><path d="M 148.703125 125.660156 L 186.429688 141.996094 L 174.957031 168.492188 L 137.230469 152.15625 Z M 148.703125 125.660156 " clip-rule="nonzero"/></clipPath><clipPath id="03c9561a69"><path d="M 0.0390625 0.519531 L 49.480469 0.519531 L 49.480469 43.71875 L 0.0390625 43.71875 Z M 0.0390625 0.519531 " clip-rule="nonzero"/></clipPath><clipPath id="4a2881aac8"><path d="M 11.703125 0.660156 L 49.429688 16.996094 L 37.957031 43.492188 L 0.230469 27.15625 Z M 11.703125 0.660156 " clip-rule="nonzero"/></clipPath><clipPath id="e80c39e5a0"><rect x="0" width="50" y="0" height="44"/></clipPath><clipPath id="8dcc19d3fb"><path d="M 117.554688 145.789062 L 253.550781 145.789062 L 253.550781 194.714844 L 117.554688 194.714844 Z M 117.554688 145.789062 " clip-rule="nonzero"/></clipPath><clipPath id="5d1fd1370c"><path d="M 0.554688 0.789062 L 136.550781 0.789062 L 136.550781 49.714844 L 0.554688 49.714844 Z M 0.554688 0.789062 " clip-rule="nonzero"/></clipPath><clipPath id="5654e767b3"><rect x="0" width="137" y="0" height="50"/></clipPath><clipPath id="06a328dc3c"><path d="M 180 127 L 230 127 L 230 170 L 180 170 Z M 180 127 " clip-rule="nonzero"/></clipPath><clipPath id="2da1796cd1"><path d="M 180.90625 142.917969 L 218.824219 127.039062 L 229.976562 153.667969 L 192.058594 169.546875 Z M 180.90625 142.917969 " clip-rule="nonzero"/></clipPath><clipPath id="2280f3dace"><path d="M 0.71875 0 L 50 0 L 50 42.679688 L 0.71875 42.679688 Z M 0.71875 0 " clip-rule="nonzero"/></clipPath><clipPath id="8de7e47685"><path d="M 0.90625 15.917969 L 38.824219 0.0390625 L 49.976562 26.667969 L 12.058594 42.546875 Z M 0.90625 15.917969 " clip-rule="nonzero"/></clipPath><clipPath id="3ae1044b68"><rect x="0" width="50" y="0" height="43"/></clipPath><clipPath id="efe1f73b63"><path d="M 64.371094 157.835938 L 187.761719 157.835938 L 187.761719 255.628906 L 64.371094 255.628906 Z M 64.371094 157.835938 " clip-rule="nonzero"/></clipPath><clipPath id="d9f1cae05f"><path d="M 125.9375 157.835938 C 91.933594 157.835938 64.371094 179.726562 64.371094 206.734375 C 64.371094 233.738281 91.933594 255.628906 125.9375 255.628906 C 159.9375 255.628906 187.5 233.738281 187.5 206.734375 C 187.5 179.726562 159.9375 157.835938 125.9375 157.835938 Z M 125.9375 157.835938 " clip-rule="nonzero"/></clipPath><clipPath id="eb55b9a150"><path d="M 0.371094 0.835938 L 123.679688 0.835938 L 123.679688 98.628906 L 0.371094 98.628906 Z M 0.371094 0.835938 " clip-rule="nonzero"/></clipPath><clipPath id="c205756374"><path d="M 61.9375 0.835938 C 27.933594 0.835938 0.371094 22.726562 0.371094 49.734375 C 0.371094 76.738281 27.933594 98.628906 61.9375 98.628906 C 95.9375 98.628906 123.5 76.738281 123.5 49.734375 C 123.5 22.726562 95.9375 0.835938 61.9375 0.835938 Z M 61.9375 0.835938 " clip-rule="nonzero"/></clipPath><clipPath id="68542a3d2e"><rect x="0" width="124" y="0" height="99"/></clipPath><clipPath id="83f956f9e0"><path d="M 183.144531 157.835938 L 306.535156 157.835938 L 306.535156 255.628906 L 183.144531 255.628906 Z M 183.144531 157.835938 " clip-rule="nonzero"/></clipPath><clipPath id="c4347328a6"><path d="M 244.710938 157.835938 C 210.710938 157.835938 183.144531 179.726562 183.144531 206.734375 C 183.144531 233.738281 210.710938 255.628906 244.710938 255.628906 C 278.710938 255.628906 306.273438 233.738281 306.273438 206.734375 C 306.273438 179.726562 278.710938 157.835938 244.710938 157.835938 Z M 244.710938 157.835938 " clip-rule="nonzero"/></clipPath><clipPath id="f1dd130ff1"><path d="M 0.144531 0.835938 L 123.480469 0.835938 L 123.480469 98.628906 L 0.144531 98.628906 Z M 0.144531 0.835938 " clip-rule="nonzero"/></clipPath><clipPath id="f834cbb602"><path d="M 61.710938 0.835938 C 27.710938 0.835938 0.144531 22.726562 0.144531 49.734375 C 0.144531 76.738281 27.710938 98.628906 61.710938 98.628906 C 95.710938 98.628906 123.273438 76.738281 123.273438 49.734375 C 123.273438 22.726562 95.710938 0.835938 61.710938 0.835938 Z M 61.710938 0.835938 " clip-rule="nonzero"/></clipPath><clipPath id="547f917f03"><rect x="0" width="124" y="0" height="99"/></clipPath><clipPath id="b3482e1440"><path d="M 271.765625 84.148438 L 284.089844 84.148438 L 284.089844 187.5 L 271.765625 187.5 Z M 271.765625 84.148438 " clip-rule="nonzero"/></clipPath><clipPath id="2c2c277924"><path d="M 0.765625 0.148438 L 13.089844 0.148438 L 13.089844 103.5 L 0.765625 103.5 Z M 0.765625 0.148438 " clip-rule="nonzero"/></clipPath><clipPath id="57e127dfa9"><rect x="0" width="14" y="0" height="104"/></clipPath><clipPath id="3e42365f92"><path d="M 265.210938 183.230469 L 290.644531 183.230469 L 290.644531 217.105469 L 265.210938 217.105469 Z M 265.210938 183.230469 " clip-rule="nonzero"/></clipPath><clipPath id="28a8037656"><path d="M 280.152344 183.230469 L 284.285156 185.269531 L 287.664062 189.082031 L 289.886719 194.289062 L 290.644531 200.140625 L 289.886719 206.046875 L 287.664062 211.199219 L 284.285156 215.007812 L 280.152344 217.050781 L 275.703125 217.050781 L 271.570312 215.007812 L 268.191406 211.199219 L 265.96875 206.046875 L 265.210938 200.140625 L 265.96875 194.289062 L 268.191406 189.082031 L 271.570312 185.269531 L 275.703125 183.230469 Z M 280.152344 183.230469 " clip-rule="nonzero"/></clipPath><clipPath id="955451580a"><path d="M 0.210938 0.230469 L 25.644531 0.230469 L 25.644531 34.105469 L 0.210938 34.105469 Z M 0.210938 0.230469 " clip-rule="nonzero"/></clipPath><clipPath id="d2f765d9fe"><path d="M 15.152344 0.230469 L 19.285156 2.269531 L 22.664062 6.082031 L 24.886719 11.289062 L 25.644531 17.140625 L 24.886719 23.046875 L 22.664062 28.199219 L 19.285156 32.007812 L 15.152344 34.050781 L 10.703125 34.050781 L 6.570312 32.007812 L 3.191406 28.199219 L 0.96875 23.046875 L 0.210938 17.140625 L 0.96875 11.289062 L 3.191406 6.082031 L 6.570312 2.269531 L 10.703125 0.230469 Z M 15.152344 0.230469 " clip-rule="nonzero"/></clipPath><clipPath id="99b9f368bf"><rect x="0" width="26" y="0" height="35"/></clipPath></defs><g clip-path="url(#2c8696b525)"><g transform="matrix(1, 0, 0, 1, 52, 74)"><g clip-path="url(#6f9db31d94)"><g clip-path="url(#3082ce99a4)"><path fill="#1800ad" d="M 0.242188 0.425781 L 270.628906 0.425781 L 270.628906 181.628906 L 0.242188 181.628906 Z M 0.242188 0.425781 " fill-opacity="1" fill-rule="nonzero"/></g></g></g></g><g clip-path="url(#7df801cfc5)"><g transform="matrix(1, 0, 0, 1, 40, 272)"><g clip-path="url(#a77388d351)"><g clip-path="url(#4c3546b973)"><path fill="#1800ad" d="M 0.976562 0.125 L 297.488281 0.125 L 297.488281 20.035156 L 0.976562 20.035156 Z M 0.976562 0.125 " fill-opacity="1" fill-rule="nonzero"/></g></g></g></g><g clip-path="url(#457edeb7b4)"><g transform="matrix(1, 0, 0, 1, 68, 284)"><g clip-path="url(#028497a445)"><g clip-path="url(#be49833341)"><path fill="#1800ad" d="M 0.285156 0.230469 L 242.765625 0.230469 L 242.765625 36.9375 L 0.285156 36.9375 Z M 0.285156 0.230469 " fill-opacity="1" fill-rule="nonzero"/></g></g></g></g><g clip-path="url(#747249b93e)"><g clip-path="url(#19e0a29375)"><g clip-path="url(#4e1eac4b99)"><g transform="matrix(1, 0, 0, 1, 40, 282)"><g clip-path="url(#f7d3e67c61)"><g clip-path="url(#6c609e602c)"><g clip-path="url(#e218f736c2)"><g clip-path="url(#cddfdd3474)"><path fill="#1800ad" d="M -5.382812 28.648438 L 6.386719 -9.941406 L 40.101562 0.34375 L 28.332031 38.929688 Z M -5.382812 28.648438 " fill-opacity="1" fill-rule="nonzero"/></g></g></g></g></g></g></g></g><g clip-path="url(#68fe8e6cc7)"><g clip-path="url(#31342fc496)"><g clip-path="url(#cd8927cc71)"><g transform="matrix(1, 0, 0, 1, 299, 281)"><g clip-path="url(#7250c8cef3)"><g clip-path="url(#2e1f04c490)"><g clip-path="url(#6fbe753f01)"><g clip-path="url(#130c8c7fd8)"><path fill="#1800ad" d="M -14.15625 15.007812 L 14.371094 -13.515625 L 39.292969 11.40625 L 10.765625 39.933594 Z M -14.15625 15.007812 " fill-opacity="1" fill-rule="nonzero"/></g></g></g></g></g></g></g></g><g clip-path="url(#3ffece6948)"><g transform="matrix(1, 0, 0, 1, 158, 290)"><g clip-path="url(#6801664ffb)"><g clip-path="url(#62b99dd09b)"><path fill="#ffffff" d="M 0 0.398438 L 12.1875 0.398438 L 12.1875 12.582031 L 0 12.582031 Z M 0 0.398438 " fill-opacity="1" fill-rule="nonzero"/></g></g></g></g><g clip-path="url(#35da351bb3)"><g transform="matrix(1, 0, 0, 1, 183, 290)"><g clip-path="url(#ac0d5c5bb3)"><g clip-path="url(#69e8021a0a)"><path fill="#ffffff" d="M 0.144531 0.398438 L 12.332031 0.398438 L 12.332031 12.582031 L 0.144531 12.582031 Z M 0.144531 0.398438 " fill-opacity="1" fill-rule="nonzero"/></g></g></g></g><g clip-path="url(#199baa3167)"><g transform="matrix(1, 0, 0, 1, 208, 290)"><g clip-path="url(#cba6c418a8)"><g clip-path="url(#3961546f9b)"><path fill="#ffffff" d="M 0.0820312 0.4375 L 12.269531 0.4375 L 12.269531 12.625 L 0.0820312 12.625 Z M 0.0820312 0.4375 " fill-opacity="1" fill-rule="nonzero"/></g></g></g></g><g clip-path="url(#c37f945efe)"><g clip-path="url(#aa176f9b90)"><g transform="matrix(1, 0, 0, 1, 114, 97)"><g clip-path="url(#793e4a0cbe)"><g clip-path="url(#3dd806513a)"><g clip-path="url(#0505f59c40)"><path fill="#ffffff" d="M 141.847656 31.597656 L 0.707031 31.597656 L 0.707031 0.3125 L 141.847656 0.3125 Z M 141.847656 31.597656 " fill-opacity="1" fill-rule="nonzero"/></g></g></g></g></g></g><g clip-path="url(#c338b4025d)"><g clip-path="url(#41bde35255)"><g transform="matrix(1, 0, 0, 1, 85, 53)"><g clip-path="url(#ee44284024)"><g clip-path="url(#a6a300a5df)"><g clip-path="url(#fc924e6f7a)"><path fill="#ffffff" d="M 0.0390625 63.824219 L 0.0390625 0.363281 L 76.140625 0.363281 L 76.140625 63.824219 Z M 0.0390625 63.824219 " fill-opacity="1" fill-rule="nonzero"/></g></g></g></g></g></g><g clip-path="url(#ede6115bc8)"><g clip-path="url(#85e24ac3e4)"><g clip-path="url(#f53d89840b)"><g transform="matrix(1, 0, 0, 1, 208, 55)"><g clip-path="url(#7dc42645c0)"><g clip-path="url(#f30d412781)"><g clip-path="url(#d48a5e70a1)"><g clip-path="url(#fd0313ab62)"><path fill="#ffffff" d="M 76.046875 -1.632812 L 77.582031 61.804688 L 1.507812 63.648438 L -0.03125 0.207031 Z M 76.046875 -1.632812 " fill-opacity="1" fill-rule="nonzero"/></g></g></g></g></g></g></g></g><g clip-path="url(#e20cfd9bc5)"><g transform="matrix(1, 0, 0, 1, 146, 72)"><g clip-path="url(#c9404bacb5)"><g clip-path="url(#07df843f1c)"><path fill="#ffffff" d="M 0.539062 0.316406 L 73.796875 0.316406 L 73.796875 40.644531 L 0.539062 40.644531 Z M 0.539062 0.316406 " fill-opacity="1" fill-rule="nonzero"/></g></g></g></g><g clip-path="url(#c06943e0e9)"><g clip-path="url(#aacad7bd08)"><g transform="matrix(1, 0, 0, 1, 113, 42)"><g clip-path="url(#d15a03d79b)"><g clip-path="url(#a8dbe5cb26)"><g clip-path="url(#7a2fd6f8da)"><path fill="#1800ad" d="M 0.960938 0.394531 L 142.101562 0.394531 L 142.101562 31.675781 L 0.960938 31.675781 Z M 0.960938 0.394531 " fill-opacity="1" fill-rule="nonzero"/></g></g></g></g></g></g><g clip-path="url(#62607455c4)"><g clip-path="url(#cc135438e5)"><g clip-path="url(#955f7d59d2)"><g transform="matrix(1, 0, 0, 1, 117, 111)"><g clip-path="url(#66e2c7c39c)"><g clip-path="url(#6153b42a02)"><g clip-path="url(#6faba0e58a)"><g clip-path="url(#9b2082516f)"><path fill="#ffffff" d="M -18.292969 14.703125 L 19.960938 -12.964844 L 44.136719 20.457031 L 5.882812 48.125 Z M -18.292969 14.703125 " fill-opacity="1" fill-rule="nonzero"/></g></g></g></g></g></g></g></g><g clip-path="url(#a8e3afc44a)"><g clip-path="url(#6c498c79b5)"><g clip-path="url(#896c0bb412)"><g transform="matrix(1, 0, 0, 1, 210, 112)"><g clip-path="url(#9b520a904f)"><g clip-path="url(#220dc73071)"><g clip-path="url(#dd8a877b1b)"><g clip-path="url(#86cca9ca6b)"><path fill="#ffffff" d="M 25.609375 -14.269531 L 63.125 14.398438 L 38.078125 47.175781 L 0.5625 18.507812 Z M 25.609375 -14.269531 " fill-opacity="1" fill-rule="nonzero"/></g></g></g></g></g></g></g></g><g clip-path="url(#cc225ab109)"><g transform="matrix(1, 0, 0, 1, 117, 113)"><g clip-path="url(#465f166fc1)"><g clip-path="url(#893bfc78f9)"><path fill="#ffffff" d="M 0.554688 0.402344 L 4.304688 0.402344 L 4.304688 46.722656 L 0.554688 46.722656 Z M 0.554688 0.402344 " fill-opacity="1" fill-rule="nonzero"/></g></g></g></g><g clip-path="url(#8ee43d74d8)"><g transform="matrix(1, 0, 0, 1, 249, 114)"><g clip-path="url(#11bf380e4a)"><g clip-path="url(#fca7e23339)"><path fill="#ffffff" d="M 0.800781 0 L 4.550781 0 L 4.550781 45.132812 L 0.800781 45.132812 Z M 0.800781 0 " fill-opacity="1" fill-rule="nonzero"/></g></g></g></g><g clip-path="url(#b811c2bf91)"><g transform="matrix(1, 0, 0, 1, 210, 131)"><g clip-path="url(#873d543eac)"><g clip-path="url(#9ed7f50267)"><path fill="#ffffff" d="M 0.566406 0.351562 L 41.730469 0.351562 L 41.730469 29.222656 L 0.566406 29.222656 Z M 0.566406 0.351562 " fill-opacity="1" fill-rule="nonzero"/></g></g></g></g><g clip-path="url(#10ef03931c)"><g transform="matrix(1, 0, 0, 1, 119, 130)"><g clip-path="url(#9440b2faf0)"><g clip-path="url(#f10cd759af)"><path fill="#ffffff" d="M 0.972656 0.257812 L 38.980469 0.257812 L 38.980469 29.128906 L 0.972656 29.128906 Z M 0.972656 0.257812 " fill-opacity="1" fill-rule="nonzero"/></g></g></g></g><g clip-path="url(#c57363b88a)"><g clip-path="url(#e8599c6e75)"><g transform="matrix(1, 0, 0, 1, 137, 125)"><g clip-path="url(#e80c39e5a0)"><g clip-path="url(#03c9561a69)"><g clip-path="url(#4a2881aac8)"><path fill="#ffffff" d="M 11.703125 0.660156 L 49.476562 17.019531 L 38.007812 43.511719 L 0.230469 27.15625 Z M 11.703125 0.660156 " fill-opacity="1" fill-rule="nonzero"/></g></g></g></g></g></g><g clip-path="url(#8dcc19d3fb)"><g transform="matrix(1, 0, 0, 1, 117, 145)"><g clip-path="url(#5654e767b3)"><g clip-path="url(#5d1fd1370c)"><path fill="#ffffff" d="M 0.554688 0.789062 L 136.632812 0.789062 L 136.632812 49.714844 L 0.554688 49.714844 Z M 0.554688 0.789062 " fill-opacity="1" fill-rule="nonzero"/></g></g></g></g><g clip-path="url(#06a328dc3c)"><g clip-path="url(#2da1796cd1)"><g transform="matrix(1, 0, 0, 1, 180, 127)"><g clip-path="url(#3ae1044b68)"><g clip-path="url(#2280f3dace)"><g clip-path="url(#8de7e47685)"><path fill="#ffffff" d="M 0.90625 15.917969 L 38.875 0.015625 L 50.027344 26.644531 L 12.058594 42.546875 Z M 0.90625 15.917969 " fill-opacity="1" fill-rule="nonzero"/></g></g></g></g></g></g><g clip-path="url(#efe1f73b63)"><g clip-path="url(#d9f1cae05f)"><g transform="matrix(1, 0, 0, 1, 64, 157)"><g clip-path="url(#68542a3d2e)"><g clip-path="url(#eb55b9a150)"><g clip-path="url(#c205756374)"><path fill="#1800ad" d="M 0.371094 0.835938 L 123.378906 0.835938 L 123.378906 98.628906 L 0.371094 98.628906 Z M 0.371094 0.835938 " fill-opacity="1" fill-rule="nonzero"/></g></g></g></g></g></g><g clip-path="url(#83f956f9e0)"><g clip-path="url(#c4347328a6)"><g transform="matrix(1, 0, 0, 1, 183, 157)"><g clip-path="url(#547f917f03)"><g clip-path="url(#f1dd130ff1)"><g clip-path="url(#f834cbb602)"><path fill="#1800ad" d="M 0.144531 0.835938 L 123.152344 0.835938 L 123.152344 98.628906 L 0.144531 98.628906 Z M 0.144531 0.835938 " fill-opacity="1" fill-rule="nonzero"/></g></g></g></g></g></g><g clip-path="url(#b3482e1440)"><g transform="matrix(1, 0, 0, 1, 271, 84)"><g clip-path="url(#57e127dfa9)"><g clip-path="url(#2c2c277924)"><path fill="#ffffff" d="M 0.765625 0.148438 L 13.089844 0.148438 L 13.089844 103.476562 L 0.765625 103.476562 Z M 0.765625 0.148438 " fill-opacity="1" fill-rule="nonzero"/></g></g></g></g><g clip-path="url(#3e42365f92)"><g clip-path="url(#28a8037656)"><g transform="matrix(1, 0, 0, 1, 265, 183)"><g clip-path="url(#99b9f368bf)"><g clip-path="url(#955451580a)"><g clip-path="url(#d2f765d9fe)"><path fill="#ffffff" d="M 0.210938 0.230469 L 25.644531 0.230469 L 25.644531 34.105469 L 0.210938 34.105469 Z M 0.210938 0.230469 " fill-opacity="1" fill-rule="nonzero"/></g></g></g></g></g></g></svg>